<svg xmlns="http://www.w3.org/2000/svg" viewBox="0 0 86 65.305">
  <defs>
    <style>
      .cls-1 {
        fill: #fff;
      }
    </style>
  </defs>
  <g id="_002-camper" data-name="002-camper" transform="translate(0 -0.122)">
    <path id="Path_1" data-name="Path 1" class="cls-1" d="M75.966,19.552H55.9V16.685H73.1a1.433,1.433,0,0,0,1.433-1.433,4.864,4.864,0,0,0-4-4.789A147.565,147.565,0,0,0,44.748,8.086h-.63a147.516,147.516,0,0,0-16.095.982L26.938,6.356A12.135,12.135,0,0,0,22.382.738a3.661,3.661,0,0,0-4.62,5.634,2.96,2.96,0,0,1,.872,2.106v1.936c-.1.017-.2.03-.3.047a4.873,4.873,0,0,0-4,4.79,1.433,1.433,0,0,0,1.433,1.433H30.1v2.867H13.366A10.01,10.01,0,0,0,3.96,26.145a.29.29,0,0,0-.02.038c-.025.05-.076.178-.094.229L1.029,34.869l-.365,1.1A23.233,23.233,0,0,0,0,41.482V56.245a3.44,3.44,0,0,0,3.44,3.44h6.737a7.167,7.167,0,0,0,14.046,0H57.477a7.167,7.167,0,0,0,14.047,0H82.56A3.44,3.44,0,0,0,86,56.245V29.586A10.045,10.045,0,0,0,75.966,19.552ZM19.789,4.347a.794.794,0,0,1,1-1.223,9.29,9.29,0,0,1,3.485,4.3l.8,1.985c-1.2.161-2.382.363-3.572.553V8.478A5.8,5.8,0,0,0,19.789,4.347Zm-.946,8.935a144.984,144.984,0,0,1,25.591-2.331,144.872,144.872,0,0,1,25.591,2.332,2.009,2.009,0,0,1,1.039.534H17.8A2.013,2.013,0,0,1,18.843,13.282Zm14.124,3.4H53.034v2.867H32.966ZM6.288,28.152H19.9a.166.166,0,0,1,.166.166v5.4a.166.166,0,0,1-.166.167H4.378ZM83.133,49.738l-8.472-.086a4.318,4.318,0,0,0-4.046-2.867H58.385a4.32,4.32,0,0,0-4.256,3.691l-.906,6.342H28.476l-.906-6.342a4.32,4.32,0,0,0-4.256-3.691H11.085a4.323,4.323,0,0,0-4.062,2.888l-4.157.059V42.485H83.133ZM2.867,56.245V52.6l3.668-.051-.611,4.271H3.44A.573.573,0,0,1,2.867,56.245ZM17.2,62.552a4.3,4.3,0,1,1,4.3-4.3A4.3,4.3,0,0,1,17.2,62.552Zm7.023-5.733a7.167,7.167,0,0,0-14.046,0H8.819l.849-5.936a1.433,1.433,0,0,1,1.417-1.23h12.23a1.433,1.433,0,0,1,1.417,1.23l.849,5.936ZM64.5,62.552a4.3,4.3,0,1,1,4.3-4.3A4.3,4.3,0,0,1,64.5,62.552Zm7.023-5.733a7.167,7.167,0,0,0-14.046,0H56.118l.849-5.936a1.433,1.433,0,0,1,1.419-1.23h12.23a1.433,1.433,0,0,1,1.417,1.23l.849,5.936Zm11.036,0H75.776l-.613-4.293,7.971.079v3.641A.573.573,0,0,1,82.56,56.818Zm.574-17.2H2.958a14.635,14.635,0,0,1,.423-2.745l.042-.122H19.906a3.036,3.036,0,0,0,3.027-3.033v-5.4A3.036,3.036,0,0,0,19.9,25.285H7.634a7.155,7.155,0,0,1,5.733-2.867h62.6a7.175,7.175,0,0,1,7.166,7.166Zm0,0" transform="translate(0 0)"/>
    <path id="Path_2" data-name="Path 2" class="cls-1" d="M192.768,170.121H177.333a3.035,3.035,0,0,0-3.033,3.033v5.4a3.035,3.035,0,0,0,3.033,3.033h15.434a3.036,3.036,0,0,0,3.033-3.033v-5.4A3.036,3.036,0,0,0,192.768,170.121Zm.167,8.434a.167.167,0,0,1-.167.167H177.333a.166.166,0,0,1-.166-.167v-5.4a.166.166,0,0,1,.166-.166h15.434a.166.166,0,0,1,.167.166Zm0,0" transform="translate(-148.501 -144.836)"/>
    <path id="Path_3" data-name="Path 3" class="cls-1" d="M357.385,170.121H341.951a3.035,3.035,0,0,0-3.033,3.033v5.4a3.035,3.035,0,0,0,3.033,3.033h15.434a3.036,3.036,0,0,0,3.033-3.033v-5.4A3.036,3.036,0,0,0,357.385,170.121Zm.167,8.434a.167.167,0,0,1-.167.167H341.951a.166.166,0,0,1-.166-.167v-5.4a.166.166,0,0,1,.166-.166h15.434a.166.166,0,0,1,.167.166Zm0,0" transform="translate(-288.751 -144.836)"/>
    <path id="Path_4" data-name="Path 4" class="cls-1" d="M503.535,189.488h5.733v2.867h-5.733Zm0,0" transform="translate(-429.002 -161.336)"/>
    <path id="Path_5" data-name="Path 5" class="cls-1" d="M503.535,228.223h5.733v2.866h-5.733Zm0,0" transform="translate(-429.002 -194.337)"/>
  </g>
</svg>
